# xmcd
#
# Track frame offsets: 
#        150
#        8732
#        19025
#        38877
#        53002
#        67795
#        81850
#        103907
#        118457
#        130710
#        148550
#        166820
#        177240
#        188940
#        203432
#        217690
#        238710
#
# Disc length: 3495 seconds
#
# Revision: 0
# Processed by: cddbd v1.4PL0 Copyright (c) Steve Scherf et al.
# Submitted via: ExactAudioCopy v0.95a4
#
DISCID=dd0da511
DTITLE=Various Artist - Give ME The Blues
DYEAR=1993
DGENRE=Blues
TTITLE0=Mike Sanchez/Hallelujah I Love Her So
TTITLE1=Mike Sanchez/Sit Right Down And Cry Over You
TTITLE2=Rag Mama Rag/Can't Be Satisfied
TTITLE3=Rag Mama Rag/Diddy Wah Diddy
TTITLE4=Rag Mama Rag/He's In The Jailhouse Now
TTITLE5=Geraint Watkins/Hound Dog
TTITLE6=Geraint Watkins/Pennies From Heaven
TTITLE7=Geraint Watkins/Solingen Swing
TTITLE8=Peter Jagger/Baby Let Me Follow You Down
TTITLE9=Peter Jagger/Late In The Evening
TTITLE10=Mike Sanchez/Fine And Healthy Thing
TTITLE11=Mike Sanchez/No Particular Place To Go
TTITLE12=Pete Smith and Errol Linton/Another Gig Gone Down
TTITLE13=Pete Smith and Errol Linton/Just Keep Loving Her
TTITLE14=Pete Smith and Errol Linton/Love You True
TTITLE15=Tony O'Malley/Tell Me Why
TTITLE16=Tony O'Malley/Travelling On And On
EXTD=
EXTT0=
EXTT1=
EXTT2=
EXTT3=
EXTT4=
EXTT5=
EXTT6=
EXTT7=
EXTT8=
EXTT9=
EXTT10=
EXTT11=
EXTT12=
EXTT13=
EXTT14=
EXTT15=
EXTT16=
PLAYORDER=
